<svg width="100%" height="100%" viewBox="0 0 540 161" fill="none" xmlns="http://www.w3.org/2000/svg"><path d="M536.418 142.041a15.319 15.319 0 0 1-9.474 14.162 15.337 15.337 0 0 1-5.871 1.162H18.926a15.343 15.343 0 0 1-15.364-15.324V19.835A15.362 15.362 0 0 1 18.926 4.491H521.07a15.346 15.346 0 0 1 15.345 15.344l.004 122.206Z" fill="#fff"/><path d="M521.073 160.93H18.926A18.93 18.93 0 0 1 0 142.041V19.839A18.935 18.935 0 0 1 5.552 6.472 18.945 18.945 0 0 1 18.926.93H521.07c5.016.006 9.824 2 13.372 5.545a18.943 18.943 0 0 1 5.554 13.364v122.202c.008 10.419-8.496 18.889-18.922 18.889Z" fill="#A6A6A6"/><path d="M536.418 142.041a15.319 15.319 0 0 1-9.474 14.162 15.337 15.337 0 0 1-5.871 1.162H18.926a15.343 15.343 0 0 1-15.364-15.324V19.835A15.362 15.362 0 0 1 18.926 4.491H521.07a15.346 15.346 0 0 1 15.345 15.344l.004 122.206Z" fill="#000"/><path d="M120.577 80.088c-.116-12.896 10.562-19.17 11.05-19.462-6.047-8.814-15.42-10.018-18.714-10.114-7.872-.829-15.508 4.709-19.519 4.709-4.09 0-10.265-4.63-16.92-4.493-8.565.132-16.578 5.09-20.972 12.787-9.069 15.697-2.305 38.763 6.383 51.45 4.347 6.218 9.426 13.152 16.073 12.908 6.504-.264 8.933-4.141 16.781-4.141 7.776 0 10.058 4.141 16.837 3.985 6.98-.108 11.374-6.242 15.569-12.512 5.022-7.118 7.039-14.135 7.119-14.496-.16-.056-13.551-5.169-13.687-20.621ZM107.77 42.165c3.498-4.373 5.891-10.322 5.227-16.36-5.063.224-11.394 3.5-15.04 7.778-3.226 3.769-6.107 9.947-5.363 15.756 5.687.424 11.526-2.868 15.176-7.174Z" fill="#fff"/><path d="M521.073.93H252.108l105.349 160h163.616a18.94 18.94 0 0 0 18.926-18.901V19.839a18.936 18.936 0 0 0-5.553-13.366A18.95 18.95 0 0 0 521.073.93Z" fill="url(#a)"/><path d="M214.776 126.981h-9.089l-4.979-15.641h-17.305l-4.743 15.641h-8.848l17.149-53.247h10.59l17.225 53.247Zm-15.568-22.202-4.503-13.904c-.476-1.42-1.373-4.766-2.685-10.031h-.16c-.529 2.265-1.373 5.61-2.53 10.03l-4.426 13.905h14.304Zm59.584 2.532c0 6.53-1.773 11.691-5.323 15.48-3.178 3.373-7.128 5.058-11.839 5.058-5.086 0-8.744-1.813-10.966-5.446v20.146h-8.532v-41.343c0-4.102-.108-8.307-.316-12.62h7.504l.476 6.086h.16c2.846-4.585 7.164-6.878 12.959-6.878 4.531 0 8.313 1.788 11.338 5.37 3.022 3.588 4.539 8.302 4.539 14.147Zm-8.693.312c0-3.737-.84-6.818-2.529-9.246-1.845-2.525-4.323-3.79-7.428-3.79-2.106 0-4.019.705-5.727 2.093-1.713 1.4-2.834 3.23-3.358 5.494a11.18 11.18 0 0 0-.397 2.597v6.405c0 2.789.857 5.146 2.57 7.074 1.713 1.921 3.938 2.885 6.675 2.885 3.214 0 5.716-1.244 7.505-3.713 1.792-2.477 2.689-5.742 2.689-9.799Zm52.864-.312c0 6.53-1.772 11.691-5.322 15.48-3.182 3.373-7.128 5.058-11.843 5.058-5.086 0-8.744-1.813-10.966-5.446v20.146H266.3v-41.343c0-4.102-.108-8.307-.316-12.62h7.504l.476 6.086h.16c2.841-4.585 7.16-6.878 12.959-6.878 4.526 0 8.308 1.788 11.342 5.37 3.018 3.588 4.538 8.302 4.538 14.147Zm-8.696.312c0-3.737-.845-6.818-2.534-9.246-1.845-2.525-4.314-3.79-7.42-3.79-2.105 0-4.018.705-5.735 2.093-1.713 1.4-2.829 3.23-3.353 5.494-.261 1.056-.401 1.916-.401 2.597v6.405c0 2.789.861 5.146 2.566 7.074 1.713 1.917 3.938 2.885 6.683 2.885 3.218 0 5.719-1.244 7.504-3.713 1.793-2.477 2.69-5.742 2.69-9.799Zm58.083 4.422c0 4.533-1.585 8.218-4.734 11.063-3.466 3.104-8.305 4.661-14.508 4.661-5.731 0-10.326-1.104-13.792-3.317l1.973-7.11c3.742 2.217 7.853 3.321 12.327 3.321 3.218 0 5.719-.728 7.504-2.173 1.789-1.448 2.694-3.385 2.694-5.801 0-2.165-.749-3.977-2.218-5.454-1.476-1.472-3.918-2.845-7.348-4.105-9.325-3.477-13.991-8.562-13.991-15.252 0-4.37 1.649-7.946 4.938-10.743 3.29-2.793 7.653-4.19 13.08-4.19 4.846 0 8.884.845 12.09 2.53l-2.141 6.953c-3.018-1.632-6.424-2.448-10.234-2.448-3.009 0-5.37.74-7.059 2.212-1.421 1.317-2.142 2.921-2.142 4.826 0 2.1.821 3.845 2.454 5.213 1.417 1.26 4.002 2.633 7.74 4.105 4.586 1.849 7.956 4.001 10.113 6.474 2.174 2.473 3.254 5.558 3.254 9.235Zm28.283-17.057h-9.405v18.641c0 4.741 1.657 7.106 4.979 7.106 1.525 0 2.79-.128 3.79-.396l.236 6.478c-1.681.628-3.894.944-6.635.944-3.37 0-6.004-1.028-7.905-3.085-1.893-2.057-2.845-5.502-2.845-10.351V94.972h-5.603V88.57h5.603v-7.03l8.38-2.529v9.56h9.405v6.417Zm42.351 12.479c0 5.902-1.689 10.747-5.058 14.536-3.526 3.901-8.217 5.846-14.064 5.846-5.643 0-10.13-1.869-13.475-5.602-3.346-3.741-5.019-8.454-5.019-14.14 0-5.949 1.729-10.823 5.175-14.612 3.454-3.793 8.104-5.69 13.951-5.69 5.635 0 10.162 1.873 13.588 5.61 3.273 3.625 4.902 8.307 4.902 14.052Zm-8.845.196c0-3.517-.76-6.533-2.285-9.058-1.789-3.049-4.35-4.573-7.668-4.573-3.418 0-6.039 1.524-7.824 4.573-1.529 2.525-2.289 5.593-2.289 9.218 0 3.521.76 6.546 2.289 9.063 1.845 3.049 4.418 4.573 7.752 4.573 3.262 0 5.819-1.556 7.668-4.649 1.569-2.585 2.357-5.622 2.357-9.147Zm36.592-11.575c-.887-.16-1.787-.239-2.689-.236-3.002 0-5.323 1.128-6.956 3.401-1.417 2.001-2.129 4.529-2.129 7.582v20.146h-8.533v-26.304c.008-4.03-.075-8.06-.248-12.087h7.432l.312 7.346h.236c.905-2.525 2.322-4.561 4.267-6.086a10.317 10.317 0 0 1 6.167-2.056c.789 0 1.501.056 2.133.156l.008 8.138Zm38.161 9.879a20.072 20.072 0 0 1-.312 3.869h-25.598c.096 3.793 1.337 6.698 3.714 8.698 2.157 1.785 4.947 2.681 8.372 2.681 3.79 0 7.248-.6 10.358-1.812l1.337 5.917c-3.634 1.585-7.925 2.373-12.875 2.373-5.955 0-10.63-1.753-14.032-5.25-3.394-3.501-5.095-8.206-5.095-14.099 0-5.786 1.581-10.607 4.747-14.453 3.314-4.105 7.792-6.157 13.427-6.157 5.535 0 9.725 2.052 12.571 6.157 2.253 3.253 3.386 7.287 3.386 12.076Zm-8.137-2.213c.061-2.532-.5-4.713-1.656-6.558-1.477-2.376-3.75-3.56-6.796-3.56-2.79 0-5.063 1.156-6.792 3.476-1.421 1.845-2.265 4.062-2.525 6.634l17.769.008ZM180.942 54.909c-2.374 0-4.427-.116-6.136-.312V28.854c2.39-.37 4.806-.551 7.224-.544 9.786 0 14.292 4.813 14.292 12.659 0 9.05-5.323 13.94-15.38 13.94Zm1.432-23.299c-1.32 0-2.445.08-3.377.273v19.569c.504.08 1.472.116 2.833.116 6.412 0 10.062-3.65 10.062-10.483 0-6.094-3.302-9.475-9.518-9.475Zm27.992 23.495c-5.515 0-9.089-4.117-9.089-9.707 0-5.825 3.65-9.979 9.401-9.979 5.435 0 9.089 3.922 9.089 9.671 0 5.898-3.766 10.015-9.401 10.015Zm.16-16.62c-3.03 0-4.971 2.832-4.971 6.793 0 3.885 1.981 6.718 4.931 6.718 2.949 0 4.93-3.029 4.93-6.798 0-3.84-1.941-6.714-4.89-6.714Zm40.69-2.677-5.904 18.869h-3.846l-2.445-8.194a62.257 62.257 0 0 1-1.517-6.094h-.08c-.308 2.056-.892 4.117-1.513 6.093l-2.601 8.195h-3.886l-5.555-18.87h4.31l2.137 8.971c.505 2.137.929 4.153 1.281 6.058h.08c.308-1.589.812-3.573 1.553-6.018l2.681-9.006h3.418l2.566 8.814a73.899 73.899 0 0 1 1.516 6.214h.112c.273-1.94.701-4.001 1.281-6.214l2.293-8.814 4.119-.004Zm21.731 18.869h-4.194V43.842c0-3.337-1.281-5.01-3.806-5.01-2.485 0-4.194 2.137-4.194 4.622v11.223h-4.195V41.2c0-1.668-.04-3.457-.156-5.397h3.69l.196 2.912h.117c1.128-2.016 3.417-3.297 5.983-3.297 3.962 0 6.563 3.03 6.563 7.959l-.004 11.299Zm11.567 0h-4.199V27.149h4.199v27.528Zm15.292.428c-5.511 0-9.089-4.117-9.089-9.707 0-5.825 3.65-9.979 9.397-9.979 5.439 0 9.089 3.922 9.089 9.671.004 5.898-3.766 10.015-9.397 10.015Zm.156-16.62c-3.03 0-4.971 2.832-4.971 6.793 0 3.885 1.985 6.718 4.927 6.718 2.953 0 4.931-3.029 4.931-6.798.004-3.84-1.934-6.714-4.887-6.714Zm25.778 16.192-.304-2.173h-.112c-1.281 1.749-3.15 2.6-5.519 2.6-3.382 0-5.784-2.368-5.784-5.553 0-4.657 4.039-7.066 11.03-7.066v-.348c0-2.484-1.316-3.729-3.918-3.729-1.861 0-3.494.468-4.93 1.4l-.853-2.756c1.745-1.088 3.922-1.633 6.48-1.633 4.93 0 7.42 2.601 7.42 7.807v6.95c0 1.904.084 3.38.272 4.505l-3.782-.004Zm-.577-9.399c-4.658 0-6.995 1.129-6.995 3.805 0 1.98 1.204 2.949 2.877 2.949 2.133 0 4.118-1.628 4.118-3.841v-2.913Zm24.454 9.399-.196-3.03h-.116c-1.205 2.29-3.23 3.458-6.06 3.458-4.55 0-7.92-4.001-7.92-9.63 0-5.902 3.494-10.06 8.264-10.06 2.526 0 4.315.853 5.323 2.565h.084V27.15h4.199V49.59c0 1.825.044 3.533.156 5.086h-3.734Zm-.621-11.103c0-2.641-1.749-4.894-4.418-4.894-3.11 0-5.011 2.757-5.011 6.638 0 3.805 1.973 6.41 4.927 6.41 2.637 0 4.502-2.293 4.502-5.01v-3.144Zm30.817 11.53c-5.511 0-9.085-4.116-9.085-9.706 0-5.825 3.65-9.979 9.397-9.979 5.439 0 9.089 3.922 9.089 9.671.004 5.898-3.762 10.015-9.401 10.015Zm.156-16.62c-3.026 0-4.967 2.833-4.967 6.794 0 3.885 1.981 6.718 4.927 6.718 2.954 0 4.931-3.029 4.931-6.798.008-3.84-1.933-6.714-4.891-6.714Zm31.801 16.193h-4.198V43.842c0-3.337-1.281-5.01-3.806-5.01-2.485 0-4.19 2.137-4.19 4.622v11.223h-4.199V41.2c0-1.668-.04-3.457-.156-5.397h3.69l.196 2.912h.116c1.125-2.016 3.418-3.3 5.98-3.3 3.962 0 6.567 3.028 6.567 7.958v11.303Zm28.219-15.725h-4.614v9.163c0 2.333.808 3.497 2.441 3.497a8.26 8.26 0 0 0 1.861-.196l.116 3.185c-.812.312-1.901.468-3.253.468-3.306 0-5.283-1.825-5.283-6.602v-9.515h-2.754v-3.144h2.754V32.35l4.118-1.245v4.698h4.614v3.148Zm22.204 15.725h-4.19V43.922c0-3.377-1.277-5.086-3.806-5.086-2.173 0-4.198 1.477-4.198 4.466v11.375h-4.19V27.149h4.19v11.335h.084c1.321-2.056 3.234-3.069 5.675-3.069 3.994 0 6.435 3.105 6.435 8.039v11.223Zm22.749-8.426h-12.587c.08 3.572 2.445 5.589 5.947 5.589 1.861 0 3.574-.312 5.087-.892l.652 2.913c-1.785.776-3.886 1.164-6.331 1.164-5.903 0-9.397-3.73-9.397-9.51 0-5.786 3.578-10.136 8.925-10.136 4.822 0 7.848 3.573 7.848 8.97a8.079 8.079 0 0 1-.144 1.902Zm-3.846-2.99c0-2.912-1.469-4.969-4.151-4.969-2.409 0-4.314 2.097-4.586 4.97h8.737Z" fill="#fff"/><defs><linearGradient id="a" x1="396.049" y1="161.355" x2="396.049" y2="-415.682" gradientUnits="userSpaceOnUse"><stop stop-color="#1A1A1A" stop-opacity=".1"/><stop offset=".123" stop-color="#212121" stop-opacity=".151"/><stop offset=".308" stop-color="#353535" stop-opacity=".227"/><stop offset=".532" stop-color="#575757" stop-opacity=".318"/><stop offset=".783" stop-color="#858585" stop-opacity=".421"/><stop offset="1" stop-color="#B3B3B3" stop-opacity=".51"/></linearGradient></defs></svg>