<svg width="188" height="40" viewBox="0 0 188 40" fill="none" xmlns="http://www.w3.org/2000/svg">
<path d="M70.9876 33.3616H80.7316L85.1956 12.7216H75.3556L70.9876 33.3616Z" fill="#0B65B3"/>
<path d="M86.4436 6.43361C86.4436 7.16961 86.2836 7.80961 85.9636 8.35361C85.6756 8.89761 85.2756 9.36161 84.7636 9.74561C84.2836 10.1296 83.7236 10.4176 83.0836 10.6096C82.4436 10.8016 81.7876 10.8976 81.1156 10.8976C79.8356 10.8976 78.7636 10.5936 77.8996 9.98561C77.0356 9.37761 76.6036 8.41761 76.6036 7.10561C76.6036 6.40161 76.7476 5.77761 77.0356 5.23361C77.3236 4.65761 77.7076 4.19361 78.1876 3.84161C78.6996 3.45761 79.2756 3.16961 79.9156 2.97761C80.5876 2.78561 81.2756 2.68961 81.9796 2.68961C83.2276 2.68961 84.2836 2.99361 85.1476 3.60161C86.0116 4.20961 86.4436 5.15361 86.4436 6.43361Z" fill="#0B65B3"/>
<path fill-rule="evenodd" clip-rule="evenodd" d="M37.4681 23.7136C37.3401 24.4176 37.2441 25.0896 37.1801 25.7296C37.1481 26.3696 37.1321 26.9456 37.1321 27.4576C37.1321 27.7456 37.1481 28.0656 37.1801 28.4176C37.2121 28.7696 37.2761 29.1056 37.3721 29.4256C37.5001 29.7136 37.6601 29.9696 37.8521 30.1936C38.0761 30.3856 38.3801 30.4816 38.7641 30.4816C39.0521 30.4816 39.3721 30.3856 39.7241 30.1936C40.1081 30.0016 40.4761 29.7296 40.8281 29.3776C41.2121 29.0256 41.5641 28.5936 41.8841 28.0816C42.2361 27.5696 42.5081 26.9936 42.7001 26.3536H50.5721L49.3241 31.4896C48.6841 31.9056 47.9481 32.2576 47.1161 32.5456C46.2841 32.8336 45.4041 33.0736 44.4761 33.2656C43.5481 33.4256 42.6041 33.5376 41.6441 33.6016C40.6841 33.6976 39.7721 33.7456 38.9081 33.7456C37.3081 33.7456 35.8201 33.6016 34.4441 33.3136C33.0681 33.0256 31.8681 32.5296 30.8441 31.8256C29.8201 31.1216 29.0041 30.1936 28.3961 29.0416C27.8201 27.8576 27.5321 26.4016 27.5321 24.6736C27.5321 23.1056 27.7721 21.5696 28.2521 20.0656C28.7641 18.5616 29.5961 17.2336 30.7481 16.0816C31.9321 14.8976 33.5001 13.9536 35.4521 13.2496C37.4361 12.5456 39.9001 12.1936 42.8441 12.1936C46.0441 12.1936 48.4441 12.6896 50.0441 13.6816C51.6761 14.6736 52.4921 16.2256 52.4921 18.3376C52.4921 19.2016 52.3641 20.1456 52.1081 21.1696C51.8521 22.1616 51.4681 23.0096 50.9561 23.7136H37.4681ZM43.8521 18.0016C43.8521 17.0096 43.6921 16.3376 43.3721 15.9856C43.0521 15.6336 42.6681 15.4576 42.2201 15.4576C41.7081 15.4576 41.2281 15.6336 40.7801 15.9856C40.3641 16.3056 39.9801 16.7536 39.6281 17.3296C39.2761 17.8736 38.9561 18.5136 38.6681 19.2496C38.3801 19.9536 38.1401 20.7056 37.9481 21.5056H43.4201C43.4841 21.1216 43.5481 20.7216 43.6121 20.3056C43.6761 19.9536 43.7241 19.5696 43.7561 19.1536C43.8201 18.7376 43.8521 18.3536 43.8521 18.0016Z" fill="#0B65B3"/>
<path d="M62.4369 12.7216H54.6129L50.2449 33.3616H60.0369L63.1089 19.0096C63.4929 18.5296 63.8609 18.2256 64.2129 18.0976C64.5969 17.9376 64.9489 17.8576 65.2689 17.8576C65.9089 17.8576 66.3729 18.2576 66.6609 19.0576C66.9489 19.8256 67.1249 21.2016 67.1889 23.1856H72.4209L74.5329 13.2976C74.1809 13.0416 73.8129 12.8496 73.4289 12.7216C73.0769 12.5616 72.7249 12.4496 72.3729 12.3856C72.0529 12.2896 71.7489 12.2416 71.4609 12.2416C71.2049 12.2096 71.0129 12.1936 70.8849 12.1936C68.9969 12.1936 67.4769 12.5936 66.3249 13.3936C65.1729 14.1936 64.2289 15.1696 63.4929 16.3216H63.1569L62.4369 12.7216Z" fill="#0B65B3"/>
<path d="M130.325 33.3616H120.581L124.269 15.9376L124.949 12.7216H134.789L130.325 33.3616Z" fill="#0B65B3"/>
<path d="M152.327 32.2096C150.983 32.7536 149.559 33.1376 148.055 33.3616C146.583 33.6176 144.903 33.7456 143.015 33.7456C141.351 33.7456 139.815 33.5856 138.407 33.2656C137.031 32.9136 135.831 32.3696 134.807 31.6336C133.783 30.8976 132.983 29.9536 132.407 28.8016C131.831 27.6176 131.543 26.1936 131.543 24.5296C131.543 22.8016 131.831 21.2016 132.407 19.7296C133.015 18.2256 133.911 16.9136 135.095 15.7936C136.311 14.6736 137.847 13.7936 139.703 13.1536C141.559 12.5136 143.767 12.1936 146.327 12.1936C148.407 12.1936 150.215 12.3696 151.751 12.7216C153.287 13.0416 154.551 13.7936 155.543 14.9776L154.199 21.1216H147.671C147.703 20.5776 147.735 20.0976 147.767 19.6816C147.799 19.2656 147.815 18.8016 147.815 18.2896C147.815 17.2656 147.703 16.5456 147.479 16.1296C147.255 15.6816 146.887 15.4576 146.375 15.4576C145.479 15.4576 144.695 15.9056 144.023 16.8016C143.351 17.6656 142.791 18.7216 142.343 19.9696C141.927 21.1856 141.607 22.4816 141.383 23.8576C141.191 25.2016 141.095 26.3536 141.095 27.3136C141.095 27.6656 141.111 28.0336 141.143 28.4176C141.175 28.7696 141.239 29.1056 141.335 29.4256C141.463 29.7456 141.623 30.0016 141.815 30.1936C142.007 30.3856 142.279 30.4816 142.631 30.4816C142.951 30.4816 143.319 30.3856 143.735 30.1936C144.151 30.0016 144.551 29.7136 144.935 29.3296C145.319 28.9136 145.687 28.3856 146.039 27.7456C146.391 27.1056 146.663 26.3376 146.855 25.4416H153.719L152.327 32.2096Z" fill="#0B65B3"/>
<path fill-rule="evenodd" clip-rule="evenodd" d="M157.92 14.4976C159.552 13.6976 161.216 13.1216 162.912 12.7696C164.64 12.3856 166.56 12.1936 168.672 12.1936C170.72 12.1936 172.416 12.3536 173.76 12.6736C175.104 12.9936 176.176 13.4576 176.976 14.0656C177.776 14.6736 178.336 15.3936 178.656 16.2256C178.976 17.0576 179.136 18.0016 179.136 19.0576C179.136 19.6656 179.088 20.3216 178.992 21.0256C178.928 21.7296 178.848 22.3216 178.752 22.8016L177.091 30.5771H187.018L186.495 33.3589H176.497L176.496 33.3616H168.768L167.904 30.2896H167.616C166.592 31.4096 165.392 32.2736 164.016 32.8816C162.672 33.4576 161.328 33.7456 159.984 33.7456C159.216 33.7456 158.464 33.6336 157.728 33.4096C156.992 33.1856 156.336 32.8496 155.76 32.4016C155.184 31.9216 154.72 31.3296 154.368 30.6256C154.016 29.8896 153.84 29.0096 153.84 27.9856C153.84 26.3216 154.288 25.0096 155.184 24.0496C156.112 23.0576 157.312 22.3216 158.784 21.8416C160.288 21.3296 161.968 21.0096 163.824 20.8816C165.712 20.7536 167.6 20.6896 169.488 20.6896C169.552 20.3696 169.632 19.9216 169.728 19.3456C169.824 18.7376 169.872 18.2096 169.872 17.7616C169.872 17.1856 169.712 16.6576 169.392 16.1776C169.104 15.6656 168.48 15.4096 167.52 15.4096C166.4 15.4096 165.568 15.7456 165.024 16.4176C164.512 17.0576 164.176 17.8416 164.016 18.7696H157.008L157.92 14.4976ZM168.96 22.9456H168.096C167.168 22.9456 166.368 23.0736 165.696 23.3296C165.056 23.5536 164.528 23.8576 164.112 24.2416C163.728 24.6256 163.44 25.0576 163.248 25.5376C163.056 26.0176 162.96 26.4976 162.96 26.9776C162.96 27.7456 163.152 28.3216 163.536 28.7056C163.952 29.0896 164.432 29.2816 164.976 29.2816C165.648 29.2816 166.304 29.0416 166.944 28.5616C167.616 28.0816 168.032 27.4416 168.192 26.6416L168.96 22.9456Z" fill="#0B65B3"/>
<path d="M20.1359 3.36163H9.19189L10.8054 31.0535H0.982178L1.14523 33.8354H10.9675L10.9679 33.8416H22.2959L32.3681 12.1936H27.6161L21.7679 24.0016L20.1359 3.36163Z" fill="#0B65B3"/>
<path d="M89.9821 12.7216H85.1956L84.5 15.9376H89.3101L84.2339 39.7104H94.0259L99.1021 15.9376H107.216L102.14 39.7104H111.932L117.008 15.9376H124.269L124.949 12.7216H117.68L118.592 8.40161C118.752 7.60161 118.96 6.96161 119.216 6.48161C119.472 6.00161 119.776 5.63361 120.128 5.37761C120.48 5.08961 120.88 4.89761 121.328 4.80161C121.808 4.70561 122.368 4.65761 123.008 4.65761C123.488 4.65761 124.128 4.68961 124.928 4.75361C125.59 4.78008 126.219 4.82846 126.815 4.89874C126.749 5.00581 126.687 5.11743 126.629 5.23361C126.341 5.77761 126.197 6.40161 126.197 7.10561C126.197 8.41761 126.629 9.37761 127.493 9.98561C128.357 10.5936 129.429 10.8976 130.709 10.8976C131.381 10.8976 132.037 10.8016 132.677 10.6096C133.317 10.4176 133.877 10.1296 134.357 9.74561C134.869 9.36161 135.269 8.89761 135.557 8.35361C135.877 7.80961 136.037 7.16961 136.037 6.43361C136.037 5.15361 135.605 4.20961 134.741 3.60161C133.877 2.99361 132.821 2.68961 131.573 2.68961C130.869 2.68961 130.181 2.78561 129.509 2.97761C128.869 3.16961 128.293 3.45761 127.781 3.84161C127.618 3.9611 127.467 4.0935 127.326 4.2388L127.952 1.10561C126.736 0.81761 125.568 0.60961 124.448 0.481609C123.328 0.353611 122.272 0.289612 121.28 0.289612C119.68 0.289612 118.176 0.481611 116.768 0.86561C115.36 1.21761 114.096 1.80961 112.976 2.64161C111.888 3.47361 110.944 4.56161 110.144 5.90561C109.344 7.21761 108.736 8.83361 108.32 10.7536L107.888 12.7216H99.7741L100.686 8.40161C100.846 7.60161 101.054 6.96161 101.31 6.48161C101.566 6.00161 101.87 5.63361 102.222 5.37761C102.574 5.08961 102.974 4.89761 103.422 4.80161C103.902 4.70561 104.462 4.65761 105.102 4.65761C105.582 4.65761 106.222 4.68961 107.022 4.75361C107.822 4.78561 108.574 4.84961 109.278 4.94561L110.046 1.10561C108.83 0.81761 107.662 0.60961 106.542 0.481609C105.422 0.353611 104.366 0.289612 103.374 0.289612C101.774 0.289612 100.27 0.481611 98.8621 0.86561C97.4541 1.21761 96.1901 1.80961 95.0701 2.64161C93.9821 3.47361 93.0381 4.56161 92.2381 5.90561C91.4381 7.21761 90.8301 8.83361 90.4141 10.7536L89.9821 12.7216Z" fill="#0B65B3"/>
</svg>
